STARTFONT 2.1
COMMENT
COMMENT Converted from OpenType font "CircularStd-Book.otf" by "otf2bdf 3.0".
COMMENT
FONT -FreeType-Circular Std Book-Medium-R-Normal--19-140-100-100-P-97-ISO10646-1
SIZE 14 100 100
FONTBOUNDINGBOX 30 23 -1 -5
STARTPROPERTIES 19
FOUNDRY "FreeType"
FAMILY_NAME "Circular Std Book"
WEIGHT_NAME "Medium"
SLANT "R"
SETWIDTH_NAME "Normal"
ADD_STYLE_NAME ""
PIXEL_SIZE 19
POINT_SIZE 140
RESOLUTION_X 100
RESOLUTION_Y 100
SPACING "P"
AVERAGE_WIDTH 97
CHARSET_REGISTRY "ISO10646"
CHARSET_ENCODING "1"
FONT_ASCENT 18
FONT_DESCENT 5
COPYRIGHT "Generated in 2013 by FontLab Studio. Copyright info pending."
_OTF_FONTFILE "CircularStd-Book.otf"
_OTF_PSNAME "CircularStd-Book"
ENDPROPERTIES
CHARS 332
STARTCHAR 0000
ENCODING 0
SWIDTH 0 0
DWIDTH 0 0
BBX 0 0 0 0
BITMAP
ENDCHAR
STARTCHAR 000D
ENCODING 13
SWIDTH 257 0
DWIDTH 5 0
BBX 0 0 0 0
BITMAP
ENDCHAR
STARTCHAR 0020
ENCODING 32
SWIDTH 257 0
DWIDTH 5 0
BBX 0 0 0 0
BITMAP
ENDCHAR
STARTCHAR 0021
ENCODING 33
SWIDTH 308 0
DWIDTH 6 0
BBX 2 14 2 0
BITMAP
C0
C0
C0
C0
C0
C0
C0
C0
C0
C0
00
00
C0
C0
ENDCHAR
STARTCHAR 0022
ENCODING 34
SWIDTH 360 0
DWIDTH 7 0
BBX 5 5 1 8
BITMAP
D8
D8
D8
C8
88
ENDCHAR
STARTCHAR 0023
ENCODING 35
SWIDTH 720 0
DWIDTH 14 0
BBX 12 13 1 0
BITMAP
0C40
0CC0
08C0
7FF0
1880
1880
1980
1180
FFE0
3100
3100
3300
2300
ENDCHAR
STARTCHAR 0024
ENCODING 36
SWIDTH 617 0
DWIDTH 12 0
BBX 9 17 1 -2
BITMAP
0C00
0C00
1E00
7F80
6D80
CC00
6C00
7C00
3F00
0F80
0D80
CC80
ED80
7F80
3E00
0C00
0C00
ENDCHAR
STARTCHAR 0025
ENCODING 37
SWIDTH 822 0
DWIDTH 16 0
BBX 14 13 1 0
BITMAP
7830
FC20
C460
C4C0
FC80
7980
0300
0678
06FC
0C8C
188C
10FC
3078
ENDCHAR
STARTCHAR 0026
ENCODING 38
SWIDTH 720 0
DWIDTH 14 0
BBX 12 14 1 0
BITMAP
1E00
3F00
6300
6300
6300
3600
1C00
3C20
6660
C3E0
C1C0
63C0
7F60
3C30
ENDCHAR
STARTCHAR 0027
ENCODING 39
SWIDTH 205 0
DWIDTH 4 0
BBX 2 5 1 8
BITMAP
C0
C0
C0
C0
80
ENDCHAR
STARTCHAR 0028
ENCODING 40
SWIDTH 308 0
DWIDTH 6 0
BBX 4 18 1 -3
BITMAP
10
30
30
60
60
40
C0
C0
C0
C0
C0
C0
C0
60
60
30
30
10
ENDCHAR
STARTCHAR 0029
ENCODING 41
SWIDTH 308 0
DWIDTH 6 0
BBX 5 18 0 -3
BITMAP
40
C0
60
30
30
10
18
18
18
18
18
18
10
30
30
60
C0
40
ENDCHAR
STARTCHAR 002A
ENCODING 42
SWIDTH 462 0
DWIDTH 9 0
BBX 7 7 1 7
BITMAP
30
30
FE
FC
38
6C
4C
ENDCHAR
STARTCHAR 002B
ENCODING 43
SWIDTH 565 0
DWIDTH 11 0
BBX 9 9 1 1
BITMAP
0800
0800
0800
FF80
FF80
0800
0800
0800
0800
ENDCHAR
STARTCHAR 002C
ENCODING 44
SWIDTH 308 0
DWIDTH 6 0
BBX 3 6 1 -3
BITMAP
60
E0
60
20
60
C0
ENDCHAR
STARTCHAR 002D
ENCODING 45
SWIDTH 360 0
DWIDTH 7 0
BBX 5 2 1 5
BITMAP
F8
F8
ENDCHAR
STARTCHAR 002E
ENCODING 46
SWIDTH 257 0
DWIDTH 5 0
BBX 3 3 1 0
BITMAP
60
E0
60
ENDCHAR
STARTCHAR 002F
ENCODING 47
SWIDTH 411 0
DWIDTH 8 0
BBX 8 14 0 0
BITMAP
03
03
06
06
04
0C
08
18
10
30
20
60
40
C0
ENDCHAR
STARTCHAR 0030
ENCODING 48
SWIDTH 617 0
DWIDTH 12 0
BBX 10 13 1 0
BITMAP
1E00
7F00
6180
C0C0
C0C0
C0C0
C0C0
C0C0
C0C0
C0C0
6180
7F00
1E00
ENDCHAR
STARTCHAR 0031
ENCODING 49
SWIDTH 360 0
DWIDTH 7 0
BBX 5 13 0 0
BITMAP
08
18
38
F8
08
08
08
08
08
08
08
08
08
ENDCHAR
STARTCHAR 0032
ENCODING 50
SWIDTH 514 0
DWIDTH 10 0
BBX 9 13 1 0
BITMAP
3C00
7F00
C300
C300
C300
0300
0700
1E00
3800
6000
C000
FF80
FF80
ENDCHAR
STARTCHAR 0033
ENCODING 51
SWIDTH 565 0
DWIDTH 11 0
BBX 9 13 1 0
BITMAP
FF80
FF80
0700
0E00
1C00
1E00
1F00
0180
0180
C180
C380
7F00
3E00
ENDCHAR
STARTCHAR 0034
ENCODING 52
SWIDTH 565 0
DWIDTH 11 0
BBX 10 13 1 0
BITMAP
0700
0F00
1B00
1B00
3300
6300
6300
C300
FFC0
FFC0
0300
0300
0300
ENDCHAR
STARTCHAR 0035
ENCODING 53
SWIDTH 565 0
DWIDTH 11 0
BBX 9 13 1 0
BITMAP
3F00
7F00
6000
6000
4C00
FF00
6380
0180
0180
C180
C380
7F00
3E00
ENDCHAR
STARTCHAR 0036
ENCODING 54
SWIDTH 565 0
DWIDTH 11 0
BBX 10 13 1 0
BITMAP
0F80
3F80
7000
6000
CC00
FF00
E180
C180
C0C0
C080
6180
7F80
1E00
ENDCHAR
STARTCHAR 0037
ENCODING 55
SWIDTH 462 0
DWIDTH 9 0
BBX 9 13 0 0
BITMAP
FF80
FF80
0380
0300
0600
0C00
0C00
1800
1800
1800
3000
3000
3000
ENDCHAR
STARTCHAR 0038
ENCODING 56
SWIDTH 565 0
DWIDTH 11 0
BBX 9 13 1 0
BITMAP
3E00
7F00
C380
C180
C300
7F00
3E00
E300
C180
C180
C180
7F00
3E00
ENDCHAR
STARTCHAR 0039
ENCODING 57
SWIDTH 565 0
DWIDTH 11 0
BBX 9 13 1 0
BITMAP
3E00
7F00
C380
C180
C180
C180
E380
7F80
1980
0180
0300
FE00
7C00
ENDCHAR
STARTCHAR 003A
ENCODING 58
SWIDTH 308 0
DWIDTH 6 0
BBX 3 10 1 0
BITMAP
60
E0
60
00
00
00
00
60
E0
60
ENDCHAR
STARTCHAR 003B
ENCODING 59
SWIDTH 308 0
DWIDTH 6 0
BBX 3 13 1 -3
BITMAP
60
E0
60
00
00
00
00
00
60
60
20
20
40
ENDCHAR
STARTCHAR 003C
ENCODING 60
SWIDTH 462 0
DWIDTH 9 0
BBX 8 9 1 1
BITMAP
01
0F
3C
F0
C0
F0
3C
0F
01
ENDCHAR
STARTCHAR 003D
ENCODING 61
SWIDTH 617 0
DWIDTH 12 0
BBX 9 5 1 3
BITMAP
FF80
FF80
0000
FF80
FF80
ENDCHAR
STARTCHAR 003E
ENCODING 62
SWIDTH 462 0
DWIDTH 9 0
BBX 8 9 1 1
BITMAP
80
E0
78
0E
03
0E
78
E0
80
ENDCHAR
STARTCHAR 003F
ENCODING 63
SWIDTH 514 0
DWIDTH 10 0
BBX 8 14 1 0
BITMAP
3C
7E
C3
C3
C3
03
0E
1C
18
18
00
00
38
18
ENDCHAR
STARTCHAR 0040
ENCODING 64
SWIDTH 822 0
DWIDTH 16 0
BBX 14 15 1 -1
BITMAP
07C0
1CF0
3018
600C
C7E4
CC64
C864
9844
D84C
CCCC
CF78
6000
3010
1C70
07C0
ENDCHAR
STARTCHAR 0041
ENCODING 65
SWIDTH 720 0
DWIDTH 14 0
BBX 13 14 0 0
BITMAP
0700
0700
0780
0D80
0CC0
08C0
18C0
1860
3FE0
3FF0
3030
6030
6018
C018
ENDCHAR
STARTCHAR 0042
ENCODING 66
SWIDTH 617 0
DWIDTH 12 0
BBX 9 14 2 0
BITMAP
FE00
FF00
C300
C300
C300
C300
FE00
FF00
C300
C180
C180
C380
FF00
FE00
ENDCHAR
STARTCHAR 0043
ENCODING 67
SWIDTH 771 0
DWIDTH 15 0
BBX 13 14 1 0
BITMAP
0F80
3FE0
7070
6038
C010
C000
C000
C000
C000
C010
6030
7070
3FE0
0F80
ENDCHAR
STARTCHAR 0044
ENCODING 68
SWIDTH 720 0
DWIDTH 14 0
BBX 11 14 2 0
BITMAP
FE00
FF80
C1C0
C0C0
C060
C060
C060
C060
C060
C060
C0C0
C1C0
FF80
FE00
ENDCHAR
STARTCHAR 0045
ENCODING 69
SWIDTH 565 0
DWIDTH 11 0
BBX 8 14 2 0
BITMAP
FF
FF
C0
C0
C0
C0
FF
FF
C0
C0
C0
C0
FF
FF
ENDCHAR
STARTCHAR 0046
ENCODING 70
SWIDTH 565 0
DWIDTH 10 0
BBX 8 14 2 0
BITMAP
FF
FF
C0
C0
C0
C0
FF
FF
C0
C0
C0
C0
C0
C0
ENDCHAR
STARTCHAR 0047
ENCODING 71
SWIDTH 771 0
DWIDTH 15 0
BBX 13 14 1 0
BITMAP
0F80
3FE0
7070
6038
C010
C000
C000
C3F8
C3F8
C018
6038
7078
3FD8
0F98
ENDCHAR
STARTCHAR 0048
ENCODING 72
SWIDTH 720 0
DWIDTH 14 0
BBX 11 14 2 0
BITMAP
C060
C060
C060
C060
C060
C060
FFE0
FFE0
C060
C060
C060
C060
C060
C060
ENDCHAR
STARTCHAR 0049
ENCODING 73
SWIDTH 257 0
DWIDTH 5 0
BBX 2 14 2 0
BITMAP
C0
C0
C0
C0
C0
C0
C0
C0
C0
C0
C0
C0
C0
C0
ENDCHAR
STARTCHAR 004A
ENCODING 74
SWIDTH 514 0
DWIDTH 10 0
BBX 9 14 0 0
BITMAP
0180
0180
0180
0180
0180
0180
0180
0180
4180
C180
C180
6300
7F00
3E00
ENDCHAR
STARTCHAR 004B
ENCODING 75
SWIDTH 668 0
DWIDTH 13 0
BBX 10 14 2 0
BITMAP
C0C0
C180
C300
C600
CC00
DC00
F800
FC00
EE00
C600
C300
C380
C1C0
C0C0
ENDCHAR
STARTCHAR 004C
ENCODING 76
SWIDTH 565 0
DWIDTH 11 0
BBX 8 14 2 0
BITMAP
C0
C0
C0
C0
C0
C0
C0
C0
C0
C0
C0
C0
FF
FF
ENDCHAR
STARTCHAR 004D
ENCODING 77
SWIDTH 925 0
DWIDTH 18 0
BBX 15 14 2 0
BITMAP
E00E
E01E
E01E
F01E
F036
D836
D866
CC66
CCC6
CCC6
C6C6
C786
C386
C306
ENDCHAR
STARTCHAR 004E
ENCODING 78
SWIDTH 771 0
DWIDTH 15 0
BBX 11 14 2 0
BITMAP
E060
E060
F060
F860
D860
CC60
CC60
C660
C760
C360
C1E0
C1E0
C0E0
C060
ENDCHAR
STARTCHAR 004F
ENCODING 79
SWIDTH 822 0
DWIDTH 16 0
BBX 14 14 1 0
BITMAP
0F80
3FE0
7070
6018
C018
C00C
C00C
C00C
C00C
C018
6018
7030
3FE0
0F80
ENDCHAR
STARTCHAR 0050
ENCODING 80
SWIDTH 617 0
DWIDTH 12 0
BBX 9 14 2 0
BITMAP
FE00
FF00
C180
C180
C180
C180
FF00
FE00
C000
C000
C000
C000
C000
C000
ENDCHAR
STARTCHAR 0051
ENCODING 81
SWIDTH 822 0
DWIDTH 16 0
BBX 14 15 1 -1
BITMAP
0F80
3FE0
7070
6018
C018
C00C
C00C
C00C
C18C
C1D8
60D8
7070
3FF0
0F98
0008
ENDCHAR
STARTCHAR 0052
ENCODING 82
SWIDTH 617 0
DWIDTH 12 0
BBX 9 14 2 0
BITMAP
FE00
FF00
C180
C180
C180
C180
FF00
FE00
CC00
C600
C600
C300
C300
C180
ENDCHAR
STARTCHAR 0053
ENCODING 83
SWIDTH 617 0
DWIDTH 12 0
BBX 10 14 1 0
BITMAP
1E00
7F80
6180
C080
C000
6000
7E00
1F80
0180
40C0
C0C0
E180
7F80
3E00
ENDCHAR
STARTCHAR 0054
ENCODING 84
SWIDTH 617 0
DWIDTH 12 0
BBX 11 14 0 0
BITMAP
FFE0
FFE0
0600
0600
0600
0600
0600
0600
0600
0600
0600
0600
0600
0600
ENDCHAR
STARTCHAR 0055
ENCODING 85
SWIDTH 668 0
DWIDTH 13 0
BBX 9 14 2 0
BITMAP
8080
8080
8080
8080
8080
8080
8080
8080
8080
8080
C180
C180
7F00
3E00
ENDCHAR
STARTCHAR 0056
ENCODING 86
SWIDTH 668 0
DWIDTH 13 0
BBX 12 14 0 0
BITMAP
C030
6030
6030
6060
3060
3040
18C0
18C0
1980
0D80
0D80
0F00
0700
0600
ENDCHAR
STARTCHAR 0057
ENCODING 87
SWIDTH 1028 0
DWIDTH 20 0
BBX 19 14 0 0
BITMAP
C06060
60E060
60F060
60B0C0
21B0C0
3198C0
319880
331980
1B0980
1B0D80
1E0F00
0E0700
0E0700
0C0600
ENDCHAR
STARTCHAR 0058
ENCODING 88
SWIDTH 617 0
DWIDTH 12 0
BBX 10 14 1 0
BITMAP
C0C0
C0C0
6180
3300
3300
1E00
0C00
0C00
1E00
3300
3300
6180
C0C0
C0C0
ENDCHAR
STARTCHAR 0059
ENCODING 89
SWIDTH 617 0
DWIDTH 12 0
BBX 12 14 0 0
BITMAP
E070
6060
30C0
30C0
1980
0F00
0F00
0600
0600
0600
0600
0600
0600
0600
ENDCHAR
STARTCHAR 005A
ENCODING 90
SWIDTH 617 0
DWIDTH 12 0
BBX 11 14 1 0
BITMAP
FFC0
FFC0
00C0
0180
0300
0700
0E00
0C00
1800
3000
7000
E000
FFE0
FFE0
ENDCHAR
STARTCHAR 005B
ENCODING 91
SWIDTH 308 0
DWIDTH 6 0
BBX 4 18 2 -3
BITMAP
F0
80
80
80
80
80
80
80
80
80
80
80
80
80
80
80
80
F0
ENDCHAR
STARTCHAR 005C
ENCODING 92
SWIDTH 411 0
DWIDTH 8 0
BBX 8 14 0 0
BITMAP
C0
60
60
20
30
10
18
08
0C
0C
06
06
03
03
ENDCHAR
STARTCHAR 005D
ENCODING 93
SWIDTH 308 0
DWIDTH 6 0
BBX 4 18 0 -3
BITMAP
F0
30
30
30
30
30
30
30
30
30
30
30
30
30
30
30
30
F0
ENDCHAR
STARTCHAR 005E
ENCODING 94
SWIDTH 514 0
DWIDTH 10 0
BBX 8 7 1 7
BITMAP
18
3C
3C
66
66
C3
C3
ENDCHAR
STARTCHAR 005F
ENCODING 95
SWIDTH 565 0
DWIDTH 11 0
BBX 10 2 0 -2
BITMAP
FFC0
FFC0
ENDCHAR
STARTCHAR 0060
ENCODING 96
SWIDTH 257 0
DWIDTH 5 0
BBX 3 2 1 11
BITMAP
C0
60
ENDCHAR
STARTCHAR 0061
ENCODING 97
SWIDTH 514 0
DWIDTH 10 0
BBX 8 10 1 0
BITMAP
3C
7E
C3
03
3F
73
C3
C3
FF
7B
ENDCHAR
STARTCHAR 0062
ENCODING 98
SWIDTH 617 0
DWIDTH 12 0
BBX 9 14 2 0
BITMAP
8000
8000
8000
8000
BE00
FF00
C300
C180
8180
8180
C180
C300
E700
BC00
ENDCHAR
STARTCHAR 0063
ENCODING 99
SWIDTH 514 0
DWIDTH 10 0
BBX 9 10 1 0
BITMAP
3E00
7F00
E300
C000
C000
C000
C000
E380
7F00
3E00
ENDCHAR
STARTCHAR 0064
ENCODING 100
SWIDTH 565 0
DWIDTH 11 0
BBX 9 14 1 0
BITMAP
0180
0180
0180
0180
3D80
7F80
C380
C180
C180
C180
C180
C380
7780
3D80
ENDCHAR
STARTCHAR 0065
ENCODING 101
SWIDTH 565 0
DWIDTH 11 0
BBX 9 10 1 0
BITMAP
3C00
7F00
C300
C180
FF80
C000
C000
C180
7F00
3E00
ENDCHAR
STARTCHAR 0066
ENCODING 102
SWIDTH 360 0
DWIDTH 7 0
BBX 6 15 0 0
BITMAP
0C
1C
30
30
30
FC
FC
30
30
30
30
30
30
30
30
ENDCHAR
STARTCHAR 0067
ENCODING 103
SWIDTH 565 0
DWIDTH 11 0
BBX 9 14 1 -4
BITMAP
3D80
7F80
C380
C180
C180
C180
C180
6380
7F80
0980
C180
C300
7F00
3E00
ENDCHAR
STARTCHAR 0068
ENCODING 104
SWIDTH 565 0
DWIDTH 11 0
BBX 8 14 2 0
BITMAP
80
80
80
80
BC
FE
C6
83
83
83
83
83
83
83
ENDCHAR
STARTCHAR 0069
ENCODING 105
SWIDTH 257 0
DWIDTH 5 0
BBX 3 15 1 0
BITMAP
C0
E0
40
00
00
40
40
40
40
40
40
40
40
40
40
ENDCHAR
STARTCHAR 006A
ENCODING 106
SWIDTH 257 0
DWIDTH 5 0
BBX 4 19 0 -4
BITMAP
60
70
20
00
00
20
20
20
20
20
20
20
20
20
20
20
60
E0
C0
ENDCHAR
STARTCHAR 006B
ENCODING 107
SWIDTH 514 0
DWIDTH 10 0
BBX 8 14 2 0
BITMAP
80
80
80
80
86
8E
9C
B8
F0
F8
DC
8C
86
87
ENDCHAR
STARTCHAR 006C
ENCODING 108
SWIDTH 257 0
DWIDTH 5 0
BBX 1 14 2 0
BITMAP
80
80
80
80
80
80
80
80
80
80
80
80
80
80
ENDCHAR
STARTCHAR 006D
ENCODING 109
SWIDTH 874 0
DWIDTH 17 0
BBX 13 10 2 0
BITMAP
DE7C
F7EE
E3C6
C186
C186
C186
C186
C186
C186
C186
ENDCHAR
STARTCHAR 006E
ENCODING 110
SWIDTH 565 0
DWIDTH 11 0
BBX 8 10 2 0
BITMAP
BC
FE
C6
83
83
83
83
83
83
83
ENDCHAR
STARTCHAR 006F
ENCODING 111
SWIDTH 565 0
DWIDTH 11 0
BBX 9 10 1 0
BITMAP
3E00
7F00
E180
C180
C180
C180
C180
E180
7F00
3E00
ENDCHAR
STARTCHAR 0070
ENCODING 112
SWIDTH 617 0
DWIDTH 12 0
BBX 9 14 2 -4
BITMAP
BE00
FF00
C300
C180
8180
8180
C180
C300
FF00
BC00
8000
8000
8000
8000
ENDCHAR
STARTCHAR 0071
ENCODING 113
SWIDTH 565 0
DWIDTH 11 0
BBX 9 14 1 -4
BITMAP
3D80
7F80
C380
C180
C180
C180
C180
C380
7F80
3D80
0180
0180
0180
0180
ENDCHAR
STARTCHAR 0072
ENCODING 114
SWIDTH 360 0
DWIDTH 7 0
BBX 5 10 2 0
BITMAP
B8
F8
C0
C0
80
80
80
80
80
80
ENDCHAR
STARTCHAR 0073
ENCODING 115
SWIDTH 462 0
DWIDTH 9 0
BBX 7 10 1 0
BITMAP
78
FC
C6
C0
F8
3C
06
C6
FC
78
ENDCHAR
STARTCHAR 0074
ENCODING 116
SWIDTH 360 0
DWIDTH 7 0
BBX 6 13 0 0
BITMAP
30
30
30
FC
FC
30
30
30
30
30
30
3C
1C
ENDCHAR
STARTCHAR 0075
ENCODING 117
SWIDTH 565 0
DWIDTH 11 0
BBX 8 10 1 0
BITMAP
C1
C1
C1
C1
C1
C1
C1
63
67
3D
ENDCHAR
STARTCHAR 0076
ENCODING 118
SWIDTH 514 0
DWIDTH 10 0
BBX 9 10 0 0
BITMAP
C180
6180
6180
2300
3300
3300
1600
1E00
1C00
0C00
ENDCHAR
STARTCHAR 0077
ENCODING 119
SWIDTH 771 0
DWIDTH 15 0
BBX 15 10 0 0
BITMAP
C186
6386
63C4
62CC
36CC
3648
3478
1C78
1C38
1830
ENDCHAR
STARTCHAR 0078
ENCODING 120
SWIDTH 514 0
DWIDTH 10 0
BBX 8 10 1 0
BITMAP
C3
C6
6E
3C
38
38
3C
66
C6
C3
ENDCHAR
STARTCHAR 0079
ENCODING 121
SWIDTH 514 0
DWIDTH 10 0
BBX 10 14 0 -4
BITMAP
C0C0
6180
6180
3100
3300
1B00
1E00
0E00
0C00
0C00
1800
1800
1800
3000
ENDCHAR
STARTCHAR 007A
ENCODING 122
SWIDTH 462 0
DWIDTH 9 0
BBX 7 10 1 0
BITMAP
FE
FE
0C
0C
18
30
60
E0
FE
FE
ENDCHAR
STARTCHAR 007B
ENCODING 123
SWIDTH 360 0
DWIDTH 7 0
BBX 6 18 1 -3
BITMAP
1C
30
30
30
30
30
30
60
E0
E0
20
30
30
30
30
30
38
1C
ENDCHAR
STARTCHAR 007C
ENCODING 124
SWIDTH 257 0
DWIDTH 5 0
BBX 1 18 2 -3
BITMAP
80
80
80
80
80
80
80
80
80
80
80
80
80
80
80
80
80
80
ENDCHAR
STARTCHAR 007D
ENCODING 125
SWIDTH 360 0
DWIDTH 7 0
BBX 6 18 0 -3
BITMAP
E0
30
30
30
30
30
30
30
1C
1C
30
30
30
30
30
30
60
C0
ENDCHAR
STARTCHAR 007E
ENCODING 126
SWIDTH 565 0
DWIDTH 11 0
BBX 9 3 1 4
BITMAP
7080
FF80
8700
ENDCHAR
STARTCHAR 00A0
ENCODING 160
SWIDTH 257 0
DWIDTH 5 0
BBX 0 0 0 0
BITMAP
ENDCHAR
STARTCHAR 00A1
ENCODING 161
SWIDTH 257 0
DWIDTH 5 0
BBX 3 14 1 -4
BITMAP
60
E0
40
00
40
40
40
60
60
60
60
60
60
60
ENDCHAR
STARTCHAR 00A2
ENCODING 162
SWIDTH 565 0
DWIDTH 11 0
BBX 9 13 1 0
BITMAP
0800
0800
3E00
7B00
C900
C800
C800
C800
C980
7F00
3E00
0800
0800
ENDCHAR
STARTCHAR 00A3
ENCODING 163
SWIDTH 617 0
DWIDTH 12 0
BBX 10 13 1 0
BITMAP
1E00
3F00
6180
6180
6000
2000
FE00
FE00
3000
30C0
60C0
FFC0
FF80
ENDCHAR
STARTCHAR 00A4
ENCODING 164
SWIDTH 565 0
DWIDTH 11 0
BBX 9 10 1 0
BITMAP
8080
DF80
7F00
6180
4180
4180
6180
7F00
DF80
8080
ENDCHAR
STARTCHAR 00A5
ENCODING 165
SWIDTH 565 0
DWIDTH 11 0
BBX 10 13 1 0
BITMAP
C1C0
E180
6300
3300
3600
1E00
7F80
0C00
0C00
7F80
0C00
0C00
0C00
ENDCHAR
STARTCHAR 00A6
ENCODING 166
SWIDTH 257 0
DWIDTH 5 0
BBX 1 18 2 -3
BITMAP
80
80
80
80
80
80
80
80
00
00
80
80
80
80
80
80
80
80
ENDCHAR
STARTCHAR 00A7
ENCODING 167
SWIDTH 565 0
DWIDTH 11 0
BBX 7 18 2 -4
BITMAP
3C
FE
C6
C2
C0
F0
7C
CE
86
C2
E6
3C
1E
06
82
C6
FE
7C
ENDCHAR
STARTCHAR 00A8
ENCODING 168
SWIDTH 360 0
DWIDTH 7 0
BBX 5 2 1 11
BITMAP
C8
C8
ENDCHAR
STARTCHAR 00A9
ENCODING 169
SWIDTH 822 0
DWIDTH 16 0
BBX 14 14 1 0
BITMAP
0FC0
1CE0
3030
6798
CCCC
D84C
980C
980C
D84C
CCCC
6798
3030
1CE0
0FC0
ENDCHAR
STARTCHAR 00AA
ENCODING 170
SWIDTH 411 0
DWIDTH 8 0
BBX 6 7 1 6
BITMAP
78
4C
0C
7C
CC
CC
74
ENDCHAR
STARTCHAR 00AB
ENCODING 171
SWIDTH 462 0
DWIDTH 9 0
BBX 7 8 1 2
BITMAP
32
66
4C
CC
CC
4C
66
32
ENDCHAR
STARTCHAR 00AC
ENCODING 172
SWIDTH 565 0
DWIDTH 11 0
BBX 9 5 1 3
BITMAP
FF80
FF80
0180
0180
0180
ENDCHAR
STARTCHAR 00AD
ENCODING 173
SWIDTH 360 0
DWIDTH 7 0
BBX 5 2 1 5
BITMAP
F8
F8
ENDCHAR
STARTCHAR 00AE
ENCODING 174
SWIDTH 822 0
DWIDTH 16 0
BBX 14 14 1 0
BITMAP
0FC0
1CE0
7030
6798
C4CC
C4CC
84CC
878C
C58C
C48C
64D8
3030
1CE0
0FC0
ENDCHAR
STARTCHAR 00AF
ENCODING 175
SWIDTH 360 0
DWIDTH 7 0
BBX 5 2 1 11
BITMAP
F8
F8
ENDCHAR
STARTCHAR 00B0
ENCODING 176
SWIDTH 360 0
DWIDTH 7 0
BBX 6 6 1 7
BITMAP
70
F8
8C
8C
F8
70
ENDCHAR
STARTCHAR 00B1
ENCODING 177
SWIDTH 565 0
DWIDTH 11 0
BBX 9 9 1 1
BITMAP
0800
0800
0800
FF80
0800
0800
0800
FF80
FF80
ENDCHAR
STARTCHAR 00B2
ENCODING 178
SWIDTH 411 0
DWIDTH 8 0
BBX 5 7 1 7
BITMAP
70
C8
C8
18
70
40
F8
ENDCHAR
STARTCHAR 00B3
ENCODING 179
SWIDTH 411 0
DWIDTH 8 0
BBX 6 7 1 7
BITMAP
FC
18
30
38
0C
CC
78
ENDCHAR
STARTCHAR 00B4
ENCODING 180
SWIDTH 257 0
DWIDTH 5 0
BBX 3 2 1 11
BITMAP
60
C0
ENDCHAR
STARTCHAR 00B5
ENCODING 181
SWIDTH 565 0
DWIDTH 11 0
BBX 8 14 2 -4
BITMAP
83
83
83
83
83
83
83
C7
EF
FB
80
80
80
80
ENDCHAR
STARTCHAR 00B6
ENCODING 182
SWIDTH 617 0
DWIDTH 12 0
BBX 11 18 1 -4
BITMAP
3FE0
FFE0
F980
F980
F980
F980
7980
3980
0980
0980
0980
0980
0980
0980
0980
0980
0980
0980
ENDCHAR
STARTCHAR 00B7
ENCODING 183
SWIDTH 257 0
DWIDTH 5 0
BBX 3 3 1 4
BITMAP
60
E0
60
ENDCHAR
STARTCHAR 00B8
ENCODING 184
SWIDTH 308 0
DWIDTH 6 0
BBX 4 4 1 -4
BITMAP
40
70
10
F0
ENDCHAR
STARTCHAR 00B9
ENCODING 185
SWIDTH 308 0
DWIDTH 6 0
BBX 3 7 1 7
BITMAP
60
E0
20
20
20
20
20
ENDCHAR
STARTCHAR 00BA
ENCODING 186
SWIDTH 462 0
DWIDTH 9 0
BBX 7 7 1 6
BITMAP
3C
66
C6
C2
C6
66
3C
ENDCHAR
STARTCHAR 00BB
ENCODING 187
SWIDTH 462 0
DWIDTH 9 0
BBX 7 8 1 2
BITMAP
D8
CC
66
26
26
66
CC
D8
ENDCHAR
STARTCHAR 00BC
ENCODING 188
SWIDTH 771 0
DWIDTH 15 0
BBX 13 13 1 0
BITMAP
2060
E040
20C0
2180
2300
2300
2630
0C70
08F0
19B0
31F8
2030
6030
ENDCHAR
STARTCHAR 00BD
ENCODING 189
SWIDTH 771 0
DWIDTH 15 0
BBX 13 13 1 0
BITMAP
2060
E040
20C0
2180
2300
2300
2678
0CC8
08C8
1838
3060
20C0
60F8
ENDCHAR
STARTCHAR 00BE
ENCODING 190
SWIDTH 874 0
DWIDTH 17 0
BBX 15 13 1 0
BITMAP
FC18
1830
3020
3860
0CC0
CC80
7998
0338
0668
0448
0CFE
1808
1008
ENDCHAR
STARTCHAR 00BF
ENCODING 191
SWIDTH 514 0
DWIDTH 10 0
BBX 9 15 0 -5
BITMAP
0C00
0C00
0C00
0000
0C00
0C00
1C00
3800
7000
6100
C180
C180
6300
7F00
1C00
ENDCHAR
STARTCHAR 00C0
ENCODING 192
SWIDTH 720 0
DWIDTH 14 0
BBX 13 17 0 0
BITMAP
0C00
0600
0000
0700
0700
0780
0D80
0CC0
08C0
18C0
1860
3FE0
3FF0
3030
6030
6018
C018
ENDCHAR
STARTCHAR 00C1
ENCODING 193
SWIDTH 720 0
DWIDTH 14 0
BBX 13 17 0 0
BITMAP
01C0
0300
0000
0700
0700
0780
0D80
0CC0
08C0
18C0
1860
3FE0
3FF0
3030
6030
6018
C018
ENDCHAR
STARTCHAR 00C2
ENCODING 194
SWIDTH 720 0
DWIDTH 14 0
BBX 13 17 0 0
BITMAP
0700
0CC0
0000
0700
0700
0780
0D80
0CC0
08C0
18C0
1860
3FE0
3FF0
3030
6030
6018
C018
ENDCHAR
STARTCHAR 00C3
ENCODING 195
SWIDTH 720 0
DWIDTH 14 0
BBX 13 18 0 0
BITMAP
0E40
0FC0
0980
0000
0700
0700
0780
0D80
0CC0
08C0
18C0
1860
3FE0
3FF0
3030
6030
6018
C018
ENDCHAR
STARTCHAR 00C4
ENCODING 196
SWIDTH 720 0
DWIDTH 14 0
BBX 13 17 0 0
BITMAP
1860
1860
0000
0700
0700
0780
0D80
0CC0
08C0
18C0
1860
3FE0
3FF0
3030
6030
6018
C018
ENDCHAR
STARTCHAR 00C5
ENCODING 197
SWIDTH 720 0
DWIDTH 14 0
BBX 13 17 0 0
BITMAP
0780
0C80
0C80
0780
0700
0780
0D80
0CC0
08C0
18C0
1860
3FE0
3FF0
3030
6030
6018
C018
ENDCHAR
STARTCHAR 00C6
ENCODING 198
SWIDTH 1028 0
DWIDTH 20 0
BBX 19 14 0 0
BITMAP
007FE0
00FFE0
00F000
01B000
03B000
033000
073FC0
0E3FC0
0C3000
1FF000
3FF000
303000
703FE0
E03FE0
ENDCHAR
STARTCHAR 00C7
ENCODING 199
SWIDTH 771 0
DWIDTH 15 0
BBX 13 18 1 -4
BITMAP
0F80
3FE0
7070
6038
C010
C000
C000
C000
C000
C010
6030
7070
3FE0
0F80
0200
0380
0080
0700
ENDCHAR
STARTCHAR 00C8
ENCODING 200
SWIDTH 565 0
DWIDTH 11 0
BBX 8 17 2 0
BITMAP
30
18
00
FF
FF
C0
C0
C0
C0
FF
FF
C0
C0
C0
C0
FF
FF
ENDCHAR
STARTCHAR 00C9
ENCODING 201
SWIDTH 565 0
DWIDTH 11 0
BBX 8 17 2 0
BITMAP
0C
18
00
FF
FF
C0
C0
C0
C0
FF
FF
C0
C0
C0
C0
FF
FF
ENDCHAR
STARTCHAR 00CA
ENCODING 202
SWIDTH 565 0
DWIDTH 11 0
BBX 8 17 2 0
BITMAP
3C
66
00
FF
FF
C0
C0
C0
C0
FF
FF
C0
C0
C0
C0
FF
FF
ENDCHAR
STARTCHAR 00CB
ENCODING 203
SWIDTH 565 0
DWIDTH 11 0
BBX 8 17 2 0
BITMAP
66
66
00
FF
FF
C0
C0
C0
C0
FF
FF
C0
C0
C0
C0
FF
FF
ENDCHAR
STARTCHAR 00CC
ENCODING 204
SWIDTH 257 0
DWIDTH 5 0
BBX 4 17 0 0
BITMAP
C0
60
00
30
30
30
30
30
30
30
30
30
30
30
30
30
30
ENDCHAR
STARTCHAR 00CD
ENCODING 205
SWIDTH 257 0
DWIDTH 5 0
BBX 4 17 2 0
BITMAP
70
C0
00
C0
C0
C0
C0
C0
C0
C0
C0
C0
C0
C0
C0
C0
C0
ENDCHAR
STARTCHAR 00CE
ENCODING 206
SWIDTH 257 0
DWIDTH 5 0
BBX 6 17 0 0
BITMAP
78
CC
00
30
30
30
30
30
30
30
30
30
30
30
30
30
30
ENDCHAR
STARTCHAR 00CF
ENCODING 207
SWIDTH 257 0
DWIDTH 5 0
BBX 5 17 0 0
BITMAP
D8
D8
00
30
30
30
30
30
30
30
30
30
30
30
30
30
30
ENDCHAR
STARTCHAR 00D0
ENCODING 208
SWIDTH 720 0
DWIDTH 14 0
BBX 13 14 0 0
BITMAP
3F80
3FE0
3070
3030
3018
3018
FC18
FC18
3018
3018
3030
3070
3FE0
3F80
ENDCHAR
STARTCHAR 00D1
ENCODING 209
SWIDTH 771 0
DWIDTH 15 0
BBX 11 18 2 0
BITMAP
1980
3F00
3700
0000
E060
E060
F060
F860
D860
CC60
CC60
C660
C760
C360
C1E0
C1E0
C0E0
C060
ENDCHAR
STARTCHAR 00D2
ENCODING 210
SWIDTH 822 0
DWIDTH 16 0
BBX 14 17 1 0
BITMAP
0C00
0600
0000
0F80
3FE0
7070
6018
C018
C00C
C00C
C00C
C00C
C018
6018
7030
3FE0
0F80
ENDCHAR
STARTCHAR 00D3
ENCODING 211
SWIDTH 822 0
DWIDTH 16 0
BBX 14 17 1 0
BITMAP
01C0
0300
0000
0F80
3FE0
7070
6018
C018
C00C
C00C
C00C
C00C
C018
6018
7030
3FE0
0F80
ENDCHAR
STARTCHAR 00D4
ENCODING 212
SWIDTH 822 0
DWIDTH 16 0
BBX 14 17 1 0
BITMAP
0700
0CC0
0000
0F80
3FE0
7070
6018
C018
C00C
C00C
C00C
C00C
C018
6018
7030
3FE0
0F80
ENDCHAR
STARTCHAR 00D5
ENCODING 213
SWIDTH 822 0
DWIDTH 16 0
BBX 14 18 1 0
BITMAP
0040
0E40
0980
0800
0F80
3FE0
7070
6018
C018
C00C
C00C
C00C
C00C
C018
6018
7030
3FE0
0F80
ENDCHAR
STARTCHAR 00D6
ENCODING 214
SWIDTH 822 0
DWIDTH 16 0
BBX 14 17 1 0
BITMAP
1860
1860
0000
0F80
3FE0
7070
6018
C018
C00C
C00C
C00C
C00C
C018
6018
7030
3FE0
0F80
ENDCHAR
STARTCHAR 00D7
ENCODING 215
SWIDTH 514 0
DWIDTH 10 0
BBX 8 9 1 1
BITMAP
81
C3
66
3C
18
3C
66
C3
81
ENDCHAR
STARTCHAR 00D8
ENCODING 216
SWIDTH 822 0
DWIDTH 16 0
BBX 14 16 1 -1
BITMAP
0010
0F98
3FF0
7070
6078
C0D8
C18C
C30C
C60C
C60C
CC18
7818
7030
7FE0
6F80
4000
ENDCHAR
STARTCHAR 00D9
ENCODING 217
SWIDTH 668 0
DWIDTH 13 0
BBX 9 17 2 0
BITMAP
3000
1800
0000
8080
8080
8080
8080
8080
8080
8080
8080
8080
8080
C180
C180
7F00
3E00
ENDCHAR
STARTCHAR 00DA
ENCODING 218
SWIDTH 668 0
DWIDTH 13 0
BBX 9 17 2 0
BITMAP
0600
0C00
0000
8080
8080
8080
8080
8080
8080
8080
8080
8080
8080
C180
C180
7F00
3E00
ENDCHAR
STARTCHAR 00DB
ENCODING 219
SWIDTH 668 0
DWIDTH 13 0
BBX 9 17 2 0
BITMAP
1C00
3600
0000
8080
8080
8080
8080
8080
8080
8080
8080
8080
8080
C180
C180
7F00
3E00
ENDCHAR
STARTCHAR 00DC
ENCODING 220
SWIDTH 668 0
DWIDTH 13 0
BBX 9 17 2 0
BITMAP
6300
6300
0000
8080
8080
8080
8080
8080
8080
8080
8080
8080
8080
C180
C180
7F00
3E00
ENDCHAR
STARTCHAR 00DD
ENCODING 221
SWIDTH 617 0
DWIDTH 12 0
BBX 12 17 0 0
BITMAP
0300
0600
0000
E070
6060
30C0
30C0
1980
0F00
0F00
0600
0600
0600
0600
0600
0600
0600
ENDCHAR
STARTCHAR 00DE
ENCODING 222
SWIDTH 617 0
DWIDTH 12 0
BBX 9 14 2 0
BITMAP
C000
C000
C000
FE00
FF00
C180
C180
C180
C180
FF00
FE00
C000
C000
C000
ENDCHAR
STARTCHAR 00DF
ENCODING 223
SWIDTH 565 0
DWIDTH 11 0
BBX 9 14 2 0
BITMAP
3C00
7E00
C300
C300
8700
8E00
9C00
9800
9E00
8F00
8300
B180
BF00
9E00
ENDCHAR
STARTCHAR 00E0
ENCODING 224
SWIDTH 514 0
DWIDTH 10 0
BBX 8 14 1 0
BITMAP
30
30
18
00
3C
7E
C3
03
3F
73
C3
C3
FF
7B
ENDCHAR
STARTCHAR 00E1
ENCODING 225
SWIDTH 514 0
DWIDTH 10 0
BBX 8 14 1 0
BITMAP
06
0C
08
00
3C
7E
C3
03
3F
73
C3
C3
FF
7B
ENDCHAR
STARTCHAR 00E2
ENCODING 226
SWIDTH 514 0
DWIDTH 10 0
BBX 8 14 1 0
BITMAP
1C
3C
66
00
3C
7E
C3
03
3F
73
C3
C3
FF
7B
ENDCHAR
STARTCHAR 00E3
ENCODING 227
SWIDTH 514 0
DWIDTH 10 0
BBX 8 14 1 0
BITMAP
32
7E
6E
00
3C
7E
C3
03
3F
73
C3
C3
FF
7B
ENDCHAR
STARTCHAR 00E4
ENCODING 228
SWIDTH 514 0
DWIDTH 10 0
BBX 8 14 1 0
BITMAP
66
66
66
00
3C
7E
C3
03
3F
73
C3
C3
FF
7B
ENDCHAR
STARTCHAR 00E5
ENCODING 229
SWIDTH 514 0
DWIDTH 10 0
BBX 8 15 1 0
BITMAP
18
24
24
3C
00
3C
7E
C3
03
3F
73
C3
C3
FF
7B
ENDCHAR
STARTCHAR 00E6
ENCODING 230
SWIDTH 874 0
DWIDTH 17 0
BBX 15 10 1 0
BITMAP
3C78
7FFC
C386
0306
3FFE
F300
C300
C386
FFFC
7C78
ENDCHAR
STARTCHAR 00E7
ENCODING 231
SWIDTH 514 0
DWIDTH 10 0
BBX 9 14 1 -4
BITMAP
3E00
7F00
E300
C100
C000
C000
C000
C180
7700
3E00
0800
1C00
0600
1C00
ENDCHAR
STARTCHAR 00E8
ENCODING 232
SWIDTH 565 0
DWIDTH 11 0
BBX 9 14 1 0
BITMAP
3000
1800
1800
0000
3C00
7F00
C300
C180
FF80
C000
C000
C180
7F00
3E00
ENDCHAR
STARTCHAR 00E9
ENCODING 233
SWIDTH 565 0
DWIDTH 11 0
BBX 9 14 1 0
BITMAP
0600
0C00
0800
0000
3C00
7F00
C300
C180
FF80
C000
C000
C180
7F00
3E00
ENDCHAR
STARTCHAR 00EA
ENCODING 234
SWIDTH 565 0
DWIDTH 11 0
BBX 9 14 1 0
BITMAP
1C00
3400
2600
0000
3C00
7F00
C300
C180
FF80
C000
C000
C180
7F00
3E00
ENDCHAR
STARTCHAR 00EB
ENCODING 235
SWIDTH 565 0
DWIDTH 11 0
BBX 9 14 1 0
BITMAP
2600
7600
2600
0000
3C00
7F00
C300
C180
FF80
C000
C000
C180
7F00
3E00
ENDCHAR
STARTCHAR 00EC
ENCODING 236
SWIDTH 257 0
DWIDTH 5 0
BBX 3 14 0 0
BITMAP
C0
40
60
00
20
20
20
20
20
20
20
20
20
20
ENDCHAR
STARTCHAR 00ED
ENCODING 237
SWIDTH 257 0
DWIDTH 5 0
BBX 3 14 2 0
BITMAP
60
C0
C0
00
80
80
80
80
80
80
80
80
80
80
ENDCHAR
STARTCHAR 00EE
ENCODING 238
SWIDTH 257 0
DWIDTH 5 0
BBX 5 14 0 0
BITMAP
70
D8
98
00
20
20
20
20
20
20
20
20
20
20
ENDCHAR
STARTCHAR 00EF
ENCODING 239
SWIDTH 257 0
DWIDTH 5 0
BBX 5 14 0 0
BITMAP
D8
D8
00
00
20
20
20
20
20
20
20
20
20
20
ENDCHAR
STARTCHAR 00F0
ENCODING 240
SWIDTH 565 0
DWIDTH 11 0
BBX 9 14 1 0
BITMAP
3100
3F00
1E00
3700
0300
3D80
7F80
C180
C180
C180
C180
C180
7F00
3E00
ENDCHAR
STARTCHAR 00F1
ENCODING 241
SWIDTH 565 0
DWIDTH 11 0
BBX 8 14 2 0
BITMAP
76
7E
4C
00
BC
FE
C6
83
83
83
83
83
83
83
ENDCHAR
STARTCHAR 00F2
ENCODING 242
SWIDTH 565 0
DWIDTH 11 0
BBX 9 14 1 0
BITMAP
3000
1800
1800
0000
3E00
7F00
E180
C180
C180
C180
C180
E180
7F00
3E00
ENDCHAR
STARTCHAR 00F3
ENCODING 243
SWIDTH 565 0
DWIDTH 11 0
BBX 9 14 1 0
BITMAP
0600
0C00
0800
0000
3E00
7F00
E180
C180
C180
C180
C180
E180
7F00
3E00
ENDCHAR
STARTCHAR 00F4
ENCODING 244
SWIDTH 565 0
DWIDTH 11 0
BBX 9 14 1 0
BITMAP
1C00
1600
3200
0000
3E00
7F00
E180
C180
C180
C180
C180
E180
7F00
3E00
ENDCHAR
STARTCHAR 00F5
ENCODING 245
SWIDTH 565 0
DWIDTH 11 0
BBX 9 14 1 0
BITMAP
3B00
3F00
2E00
0000
3E00
7F00
E180
C180
C180
C180
C180
E180
7F00
3E00
ENDCHAR
STARTCHAR 00F6
ENCODING 246
SWIDTH 565 0
DWIDTH 11 0
BBX 9 14 1 0
BITMAP
3200
3600
3200
0000
3E00
7F00
E180
C180
C180
C180
C180
E180
7F00
3E00
ENDCHAR
STARTCHAR 00F7
ENCODING 247
SWIDTH 565 0
DWIDTH 11 0
BBX 9 9 1 1
BITMAP
1C00
1C00
0000
FF80
FF80
0000
0800
1C00
0800
ENDCHAR
STARTCHAR 00F8
ENCODING 248
SWIDTH 565 0
DWIDTH 11 0
BBX 9 12 1 -1
BITMAP
0100
3F80
7F00
E380
C780
CD80
D980
F180
F180
7F00
FE00
8000
ENDCHAR
STARTCHAR 00F9
ENCODING 249
SWIDTH 565 0
DWIDTH 11 0
BBX 8 14 1 0
BITMAP
30
18
08
00
C1
C1
C1
C1
C1
C1
C1
63
67
3D
ENDCHAR
STARTCHAR 00FA
ENCODING 250
SWIDTH 565 0
DWIDTH 11 0
BBX 8 14 1 0
BITMAP
06
0C
08
00
C1
C1
C1
C1
C1
C1
C1
63
67
3D
ENDCHAR
STARTCHAR 00FB
ENCODING 251
SWIDTH 565 0
DWIDTH 11 0
BBX 8 14 1 0
BITMAP
1C
34
26
00
C1
C1
C1
C1
C1
C1
C1
63
67
3D
ENDCHAR
STARTCHAR 00FC
ENCODING 252
SWIDTH 565 0
DWIDTH 11 0
BBX 8 14 1 0
BITMAP
36
36
00
00
C1
C1
C1
C1
C1
C1
C1
63
67
3D
ENDCHAR
STARTCHAR 00FD
ENCODING 253
SWIDTH 514 0
DWIDTH 10 0
BBX 10 18 0 -4
BITMAP
0700
0600
0C00
0000
C0C0
6180
6180
3100
3300
1B00
1E00
0E00
0C00
0C00
1800
1800
1800
3000
ENDCHAR
STARTCHAR 00FE
ENCODING 254
SWIDTH 617 0
DWIDTH 12 0
BBX 9 18 2 -4
BITMAP
8000
8000
8000
8000
BE00
FF00
C300
C180
8180
8180
C180
C300
FF00
BC00
8000
8000
8000
8000
ENDCHAR
STARTCHAR 00FF
ENCODING 255
SWIDTH 514 0
DWIDTH 10 0
BBX 10 18 0 -4
BITMAP
3300
3300
0000
0000
C0C0
6180
6180
3100
3300
1B00
1E00
0E00
0C00
0C00
1800
1800
1800
3000
ENDCHAR
STARTCHAR 0131
ENCODING 305
SWIDTH 257 0
DWIDTH 5 0
BBX 1 10 2 0
BITMAP
80
80
80
80
80
80
80
80
80
80
ENDCHAR
STARTCHAR 0141
ENCODING 321
SWIDTH 565 0
DWIDTH 11 0
BBX 10 14 0 0
BITMAP
3000
3000
3000
3000
3000
3E00
3C00
F000
F000
3000
3000
3000
3FC0
3FC0
ENDCHAR
STARTCHAR 0142
ENCODING 322
SWIDTH 308 0
DWIDTH 6 0
BBX 6 14 0 0
BITMAP
30
30
30
30
30
34
3C
78
F0
30
30
30
30
30
ENDCHAR
STARTCHAR 0152
ENCODING 338
SWIDTH 1131 0
DWIDTH 22 0
BBX 20 14 1 0
BITMAP
0F8FF0
3DEFF0
703C00
601C00
C01C00
C00C00
C00FF0
C00FF0
C00C00
C01C00
601C00
703C00
3DEFF0
0F8FF0
ENDCHAR
STARTCHAR 0153
ENCODING 339
SWIDTH 925 0
DWIDTH 18 0
BBX 16 10 1 0
BITMAP
3E3C
7F7E
E1C3
C183
C1FF
C180
C1C0
E1C3
7F7F
3E3C
ENDCHAR
STARTCHAR 0160
ENCODING 352
SWIDTH 617 0
DWIDTH 12 0
BBX 10 17 1 0
BITMAP
3300
1E00
0000
1E00
7F80
6180
C080
C000
6000
7E00
1F80
0180
40C0
C0C0
E180
7F80
3E00
ENDCHAR
STARTCHAR 0161
ENCODING 353
SWIDTH 462 0
DWIDTH 9 0
BBX 7 14 1 0
BITMAP
4C
68
38
00
78
FC
C6
C0
F8
3C
06
C6
FC
78
ENDCHAR
STARTCHAR 0178
ENCODING 376
SWIDTH 617 0
DWIDTH 12 0
BBX 12 17 0 0
BITMAP
1980
1980
0000
E070
6060
30C0
30C0
1980
0F00
0F00
0600
0600
0600
0600
0600
0600
0600
ENDCHAR
STARTCHAR 017D
ENCODING 381
SWIDTH 617 0
DWIDTH 12 0
BBX 11 17 1 0
BITMAP
3300
0E00
0000
FFC0
FFC0
00C0
0180
0300
0700
0E00
0C00
1800
3000
7000
E000
FFE0
FFE0
ENDCHAR
STARTCHAR 017E
ENCODING 382
SWIDTH 462 0
DWIDTH 9 0
BBX 7 14 1 0
BITMAP
64
6C
38
00
FE
FE
0C
0C
18
30
60
E0
FE
FE
ENDCHAR
STARTCHAR 0192
ENCODING 402
SWIDTH 462 0
DWIDTH 9 0
BBX 10 18 -1 -3
BITMAP
01C0
03C0
0300
0600
0600
1FC0
1FC0
0600
0C00
0C00
0C00
0C00
0C00
0800
1800
1800
F800
F000
ENDCHAR
STARTCHAR 02C6
ENCODING 710
SWIDTH 360 0
DWIDTH 7 0
BBX 5 2 1 11
BITMAP
70
D8
ENDCHAR
STARTCHAR 02C7
ENCODING 711
SWIDTH 360 0
DWIDTH 7 0
BBX 5 2 1 11
BITMAP
D8
70
ENDCHAR
STARTCHAR 02C9
ENCODING 713
SWIDTH 360 0
DWIDTH 7 0
BBX 5 2 1 11
BITMAP
F8
F8
ENDCHAR
STARTCHAR 02D8
ENCODING 728
SWIDTH 360 0
DWIDTH 7 0
BBX 5 2 1 11
BITMAP
88
F8
ENDCHAR
STARTCHAR 02D9
ENCODING 729
SWIDTH 154 0
DWIDTH 3 0
BBX 2 2 1 11
BITMAP
C0
C0
ENDCHAR
STARTCHAR 02DA
ENCODING 730
SWIDTH 308 0
DWIDTH 6 0
BBX 4 5 1 10
BITMAP
E0
B0
90
B0
E0
ENDCHAR
STARTCHAR 02DB
ENCODING 731
SWIDTH 257 0
DWIDTH 5 0
BBX 3 4 1 -4
BITMAP
40
80
C0
E0
ENDCHAR
STARTCHAR 02DC
ENCODING 732
SWIDTH 360 0
DWIDTH 7 0
BBX 6 3 1 11
BITMAP
EC
FC
98
ENDCHAR
STARTCHAR 02DD
ENCODING 733
SWIDTH 360 0
DWIDTH 7 0
BBX 5 2 1 11
BITMAP
D8
90
ENDCHAR
STARTCHAR 0394
ENCODING 916
SWIDTH 668 0
DWIDTH 13 0
BBX 13 14 0 0
BITMAP
0700
0700
0F00
0D80
0D80
18C0
18C0
10C0
3060
3060
6070
6030
7FF0
FFF8
ENDCHAR
STARTCHAR 03A9
ENCODING 937
SWIDTH 771 0
DWIDTH 15 0
BBX 14 14 1 0
BITMAP
0F80
3FE0
7070
6018
C018
C00C
C00C
C00C
C018
6018
7030
3CE0
FCFC
FCFC
ENDCHAR
STARTCHAR 03BC
ENCODING 956
SWIDTH 565 0
DWIDTH 11 0
BBX 8 14 2 -4
BITMAP
83
83
83
83
83
83
83
C7
EF
FB
80
80
80
80
ENDCHAR
STARTCHAR 03C0
ENCODING 960
SWIDTH 617 0
DWIDTH 12 0
BBX 10 10 1 0
BITMAP
FFC0
FFC0
6300
6300
6300
6300
6300
6300
61C0
61C0
ENDCHAR
STARTCHAR 2007
ENCODING 8199
SWIDTH 617 0
DWIDTH 12 0
BBX 0 0 0 0
BITMAP
ENDCHAR
STARTCHAR 2008
ENCODING 8200
SWIDTH 257 0
DWIDTH 5 0
BBX 0 0 0 0
BITMAP
ENDCHAR
STARTCHAR 200B
ENCODING 8203
SWIDTH 0 0
DWIDTH 0 0
BBX 0 0 0 0
BITMAP
ENDCHAR
STARTCHAR 2013
ENCODING 8211
SWIDTH 617 0
DWIDTH 12 0
BBX 10 2 1 5
BITMAP
FFC0
FFC0
ENDCHAR
STARTCHAR 2014
ENCODING 8212
SWIDTH 1080 0
DWIDTH 21 0
BBX 19 2 1 5
BITMAP
FFFFE0
FFFFE0
ENDCHAR
STARTCHAR 2018
ENCODING 8216
SWIDTH 205 0
DWIDTH 4 0
BBX 2 5 1 9
BITMAP
40
80
80
C0
C0
ENDCHAR
STARTCHAR 2019
ENCODING 8217
SWIDTH 205 0
DWIDTH 4 0
BBX 3 5 1 9
BITMAP
C0
E0
40
40
80
ENDCHAR
STARTCHAR 201A
ENCODING 8218
SWIDTH 205 0
DWIDTH 4 0
BBX 3 5 1 -3
BITMAP
C0
E0
40
40
80
ENDCHAR
STARTCHAR 201C
ENCODING 8220
SWIDTH 411 0
DWIDTH 8 0
BBX 6 5 1 9
BITMAP
4C
88
90
DC
DC
ENDCHAR
STARTCHAR 201D
ENCODING 8221
SWIDTH 411 0
DWIDTH 8 0
BBX 6 5 1 9
BITMAP
D8
DC
44
48
90
ENDCHAR
STARTCHAR 201E
ENCODING 8222
SWIDTH 411 0
DWIDTH 8 0
BBX 6 5 1 -3
BITMAP
D8
DC
44
48
90
ENDCHAR
STARTCHAR 2020
ENCODING 8224
SWIDTH 411 0
DWIDTH 8 0
BBX 7 11 0 3
BITMAP
18
18
18
FE
FE
18
18
18
18
18
18
ENDCHAR
STARTCHAR 2021
ENCODING 8225
SWIDTH 411 0
DWIDTH 8 0
BBX 6 14 1 0
BITMAP
30
30
30
FC
FC
30
30
30
30
FC
FC
30
30
30
ENDCHAR
STARTCHAR 2022
ENCODING 8226
SWIDTH 565 0
DWIDTH 11 0
BBX 8 8 1 2
BITMAP
3C
7F
7F
FF
FF
7F
7F
3C
ENDCHAR
STARTCHAR 2026
ENCODING 8230
SWIDTH 925 0
DWIDTH 18 0
BBX 14 2 2 0
BITMAP
C30C
C30C
ENDCHAR
STARTCHAR 2030
ENCODING 8240
SWIDTH 1080 0
DWIDTH 21 0
BBX 19 13 1 0
BITMAP
783000
FC2000
C46000
C4C000
FC8000
798000
030000
067380
06FFC0
0C8C60
188C60
10FFC0
307B80
ENDCHAR
STARTCHAR 2039
ENCODING 8249
SWIDTH 257 0
DWIDTH 5 0
BBX 4 8 1 2
BITMAP
30
60
40
C0
C0
40
60
30
ENDCHAR
STARTCHAR 203A
ENCODING 8250
SWIDTH 257 0
DWIDTH 5 0
BBX 3 8 1 2
BITMAP
C0
C0
60
20
20
60
C0
C0
ENDCHAR
STARTCHAR 2042
ENCODING 8258
SWIDTH 822 0
DWIDTH 16 0
BBX 15 14 1 0
BITMAP
0300
0300
0FC0
0380
0780
04C0
0000
0000
3010
B490
FCFE
3038
7868
4848
ENDCHAR
STARTCHAR 2044
ENCODING 8260
SWIDTH 565 0
DWIDTH 11 0
BBX 10 13 0 0
BITMAP
0040
00C0
0180
0100
0300
0600
0400
0C00
1800
3000
3000
6000
C000
ENDCHAR
STARTCHAR 2051
ENCODING 8273
SWIDTH 411 0
DWIDTH 8 0
BBX 6 14 1 0
BITMAP
30
30
FC
38
78
4C
00
00
30
B4
FC
30
78
48
ENDCHAR
STARTCHAR 2070
ENCODING 8304
SWIDTH 411 0
DWIDTH 8 0
BBX 6 7 1 7
BITMAP
78
4C
CC
C4
C4
CC
78
ENDCHAR
STARTCHAR 2074
ENCODING 8308
SWIDTH 462 0
DWIDTH 9 0
BBX 7 7 1 7
BITMAP
18
38
68
C8
FE
08
08
ENDCHAR
STARTCHAR 2075
ENCODING 8309
SWIDTH 411 0
DWIDTH 8 0
BBX 6 7 1 7
BITMAP
78
40
40
78
0C
CC
78
ENDCHAR
STARTCHAR 2076
ENCODING 8310
SWIDTH 411 0
DWIDTH 8 0
BBX 6 7 1 7
BITMAP
3C
60
C0
F8
CC
CC
78
ENDCHAR
STARTCHAR 2077
ENCODING 8311
SWIDTH 411 0
DWIDTH 8 0
BBX 6 7 1 7
BITMAP
FC
0C
18
30
30
20
60
ENDCHAR
STARTCHAR 2078
ENCODING 8312
SWIDTH 411 0
DWIDTH 8 0
BBX 6 7 1 7
BITMAP
78
C8
C8
78
CC
CC
78
ENDCHAR
STARTCHAR 2079
ENCODING 8313
SWIDTH 411 0
DWIDTH 8 0
BBX 6 7 1 7
BITMAP
78
CC
CC
CC
7C
08
78
ENDCHAR
STARTCHAR 2080
ENCODING 8320
SWIDTH 411 0
DWIDTH 8 0
BBX 6 7 1 -1
BITMAP
78
4C
CC
C4
C4
CC
78
ENDCHAR
STARTCHAR 2081
ENCODING 8321
SWIDTH 308 0
DWIDTH 6 0
BBX 3 7 1 -1
BITMAP
20
60
E0
20
20
20
20
ENDCHAR
STARTCHAR 2082
ENCODING 8322
SWIDTH 411 0
DWIDTH 8 0
BBX 5 7 1 -1
BITMAP
70
C8
C8
18
70
40
F8
ENDCHAR
STARTCHAR 2083
ENCODING 8323
SWIDTH 411 0
DWIDTH 8 0
BBX 6 7 1 -1
BITMAP
FC
18
30
38
0C
CC
78
ENDCHAR
STARTCHAR 2084
ENCODING 8324
SWIDTH 462 0
DWIDTH 9 0
BBX 7 7 1 -1
BITMAP
18
38
28
68
C8
FE
08
ENDCHAR
STARTCHAR 2085
ENCODING 8325
SWIDTH 411 0
DWIDTH 8 0
BBX 6 7 1 -1
BITMAP
78
40
40
78
0C
CC
78
ENDCHAR
STARTCHAR 2086
ENCODING 8326
SWIDTH 411 0
DWIDTH 8 0
BBX 6 7 1 -1
BITMAP
3C
60
C0
F8
CC
CC
78
ENDCHAR
STARTCHAR 2087
ENCODING 8327
SWIDTH 411 0
DWIDTH 8 0
BBX 6 7 1 -1
BITMAP
FC
0C
18
30
30
20
60
ENDCHAR
STARTCHAR 2088
ENCODING 8328
SWIDTH 411 0
DWIDTH 8 0
BBX 6 7 1 -1
BITMAP
78
C8
C8
78
CC
CC
78
ENDCHAR
STARTCHAR 2089
ENCODING 8329
SWIDTH 411 0
DWIDTH 8 0
BBX 6 7 1 -1
BITMAP
78
C8
CC
CC
7C
08
78
ENDCHAR
STARTCHAR 20AC
ENCODING 8364
SWIDTH 668 0
DWIDTH 13 0
BBX 12 13 1 0
BITMAP
03E0
0FE0
1800
3000
FFC0
FF80
3000
FF00
FF00
3000
1800
0FF0
03C0
ENDCHAR
STARTCHAR 2113
ENCODING 8467
SWIDTH 411 0
DWIDTH 8 0
BBX 6 13 1 0
BITMAP
38
7C
6C
6C
6C
6C
78
70
E0
60
60
7C
3C
ENDCHAR
STARTCHAR 2122
ENCODING 8482
SWIDTH 874 0
DWIDTH 17 0
BBX 15 7 1 7
BITMAP
F986
218E
21CE
21DE
2156
2176
2126
ENDCHAR
STARTCHAR 2126
ENCODING 8486
SWIDTH 771 0
DWIDTH 15 0
BBX 14 14 1 0
BITMAP
0F80
3FE0
7070
6018
C018
C00C
C00C
C00C
C018
6018
7030
3CE0
FCFC
FCFC
ENDCHAR
STARTCHAR 2160
ENCODING 8544
SWIDTH 514 0
DWIDTH 10 0
BBX 8 13 1 0
BITMAP
FF
FF
18
18
18
18
18
18
18
18
18
FF
FF
ENDCHAR
STARTCHAR 2161
ENCODING 8545
SWIDTH 771 0
DWIDTH 15 0
BBX 13 13 1 0
BITMAP
FFF8
FFF8
18C0
18C0
18C0
18C0
18C0
18C0
18C0
18C0
18C0
FFF8
FFF8
ENDCHAR
STARTCHAR 2162
ENCODING 8546
SWIDTH 1028 0
DWIDTH 20 0
BBX 18 13 1 0
BITMAP
FFFFC0
FFFFC0
18C300
18C300
18C300
18C300
18C300
18C300
18C300
18C300
18C300
FFFFC0
FFFFC0
ENDCHAR
STARTCHAR 2163
ENCODING 8547
SWIDTH 1028 0
DWIDTH 20 0
BBX 17 13 1 0
BITMAP
FFFF80
FFFF80
130600
118600
118C00
118C00
108C00
10D800
10D800
105800
107000
FFFF80
FFFF80
ENDCHAR
STARTCHAR 2164
ENCODING 8548
SWIDTH 822 0
DWIDTH 16 0
BBX 14 13 1 0
BITMAP
FFFC
FFFC
3060
1860
1840
18C0
0CC0
0C80
0D80
0780
0700
FFF8
FFF8
ENDCHAR
STARTCHAR 2165
ENCODING 8549
SWIDTH 1028 0
DWIDTH 20 0
BBX 17 13 1 0
BITMAP
FFFF80
FFFF80
186600
186600
186600
08C600
0CC600
0CC600
0D8600
078600
078600
FFFF80
FFFF80
ENDCHAR
STARTCHAR 2166
ENCODING 8550
SWIDTH 1285 0
DWIDTH 25 0
BBX 23 13 1 0
BITMAP
FFFFFE
FFFFFE
186630
186630
186630
08C630
0CC630
0CC630
0D8630
078630
078630
FFFFFE
FFFFFE
ENDCHAR
STARTCHAR 2167
ENCODING 8551
SWIDTH 1542 0
DWIDTH 30 0
BBX 28 13 1 0
BITMAP
FFFFFFF0
FFFFFFF0
10663180
18663180
18463180
18C63180
0CC63180
0C863180
0D863180
07863180
07063180
FFFFFFF0
FFFFFFF0
ENDCHAR
STARTCHAR 2168
ENCODING 8552
SWIDTH 977 0
DWIDTH 19 0
BBX 17 13 1 0
BITMAP
FFFF80
FFFF80
118C00
118C00
10D800
107000
107000
107000
10D800
11D800
118C00
FFFF80
FFFF80
ENDCHAR
STARTCHAR 2169
ENCODING 8553
SWIDTH 771 0
DWIDTH 15 0
BBX 13 13 1 0
BITMAP
FFF8
FFF8
18C0
19C0
0D80
0700
0700
0700
0D80
1980
18C0
FFF8
FFF8
ENDCHAR
STARTCHAR 216C
ENCODING 8556
SWIDTH 668 0
DWIDTH 13 0
BBX 11 13 1 0
BITMAP
FE00
FE00
1000
1000
1000
1000
1000
1060
1060
1060
1060
FFE0
FFE0
ENDCHAR
STARTCHAR 216D
ENCODING 8557
SWIDTH 720 0
DWIDTH 14 0
BBX 12 13 1 0
BITMAP
0FB0
3DF0
6070
6030
C000
C000
C000
C000
C030
6030
7070
3FF0
0FB0
ENDCHAR
STARTCHAR 216E
ENCODING 8558
SWIDTH 720 0
DWIDTH 14 0
BBX 12 13 1 0
BITMAP
FF80
FFC0
1860
1830
1830
1830
1830
1830
1830
1830
1860
FFC0
FF80
ENDCHAR
STARTCHAR 216F
ENCODING 8559
SWIDTH 1080 0
DWIDTH 21 0
BBX 19 13 1 0
BITMAP
F807E0
FC07E0
1C0F00
160F00
160F00
121B00
131B00
133300
11B300
11A300
10E300
FCEFE0
FCCFE0
ENDCHAR
STARTCHAR 2190
ENCODING 8592
SWIDTH 1028 0
DWIDTH 20 0
BBX 19 7 0 2
BITMAP
100000
300000
7FFFE0
FFFFE0
700000
100000
100000
ENDCHAR
STARTCHAR 2191
ENCODING 8593
SWIDTH 462 0
DWIDTH 9 0
BBX 7 19 1 -3
BITMAP
10
38
3C
7C
FE
10
10
10
10
10
10
10
10
10
10
10
10
10
10
ENDCHAR
STARTCHAR 2192
ENCODING 8594
SWIDTH 1028 0
DWIDTH 20 0
BBX 18 9 1 1
BITMAP
000400
000600
000700
FFFF80
FFFFC0
000780
000700
000600
000400
ENDCHAR
STARTCHAR 2193
ENCODING 8595
SWIDTH 462 0
DWIDTH 9 0
BBX 8 18 0 -3
BITMAP
18
18
18
18
18
18
18
18
18
18
18
18
18
FF
7E
3C
18
08
ENDCHAR
STARTCHAR 2196
ENCODING 8598
SWIDTH 874 0
DWIDTH 17 0
BBX 14 14 1 0
BITMAP
F800
F000
F000
F800
9C00
0E00
0700
0380
01C0
00E0
0070
0038
001C
0008
ENDCHAR
STARTCHAR 2197
ENCODING 8599
SWIDTH 771 0
DWIDTH 15 0
BBX 14 14 -1 0
BITMAP
007C
003C
003C
007C
00E4
01C0
0380
0700
0E00
1C00
3800
7000
E000
4000
ENDCHAR
STARTCHAR 2198
ENCODING 8600
SWIDTH 874 0
DWIDTH 17 0
BBX 14 14 1 0
BITMAP
4000
E000
7000
3800
1C00
0E00
0700
0380
01C0
00E4
007C
003C
003C
007C
ENDCHAR
STARTCHAR 2199
ENCODING 8601
SWIDTH 771 0
DWIDTH 15 0
BBX 13 14 1 0
BITMAP
0008
0018
0030
0060
00C0
0180
0300
0600
0C00
9800
F000
E000
F000
F800
ENDCHAR
STARTCHAR 21A9
ENCODING 8617
SWIDTH 822 0
DWIDTH 16 0
BBX 16 11 0 2
BITMAP
00FC
00FE
0002
0003
1003
3002
7FFE
FFF8
7000
1000
1000
ENDCHAR
STARTCHAR 21B0
ENCODING 8624
SWIDTH 771 0
DWIDTH 15 0
BBX 12 14 1 0
BITMAP
1000
1000
7000
FFF0
7FF0
3010
1010
0010
0010
0010
0010
0010
0010
0010
ENDCHAR
STARTCHAR 21B1
ENCODING 8625
SWIDTH 720 0
DWIDTH 14 0
BBX 13 14 1 0
BITMAP
0080
0040
0060
FFF8
FFF0
8060
8040
8000
8000
8000
8000
8000
8000
8000
ENDCHAR
STARTCHAR 21B2
ENCODING 8626
SWIDTH 771 0
DWIDTH 15 0
BBX 13 14 0 0
BITMAP
0018
0018
0018
0018
0018
0018
0018
1018
3018
7FF8
FFF8
7000
3000
1000
ENDCHAR
STARTCHAR 21B3
ENCODING 8627
SWIDTH 822 0
DWIDTH 16 0
BBX 13 14 2 0
BITMAP
8000
8000
8000
8000
8000
8000
8000
8040
8060
FFF0
FFF8
0060
0040
0080
ENDCHAR
STARTCHAR 21B4
ENCODING 8628
SWIDTH 822 0
DWIDTH 16 0
BBX 14 14 1 0
BITMAP
FFE0
FFE0
0020
0020
0020
0020
0020
0020
0020
0020
01FC
00F8
0070
0020
ENDCHAR
STARTCHAR 21C6
ENCODING 8646
SWIDTH 1131 0
DWIDTH 22 0
BBX 19 14 1 0
BITMAP
100000
300000
7FFFE0
FFFFE0
300000
100000
100000
000100
000180
0001C0
FFFFE0
FFFFE0
000180
000100
ENDCHAR
STARTCHAR 2202
ENCODING 8706
SWIDTH 617 0
DWIDTH 12 0
BBX 10 14 1 0
BITMAP
7C00
7F00
0380
0180
00C0
3EC0
7FC0
E0C0
C0C0
C0C0
C180
E180
7F00
3E00
ENDCHAR
STARTCHAR 2206
ENCODING 8710
SWIDTH 668 0
DWIDTH 13 0
BBX 13 14 0 0
BITMAP
0700
0700
0F00
0D80
0D80
18C0
18C0
10C0
3060
3060
6070
6030
7FF0
FFF8
ENDCHAR
STARTCHAR 220F
ENCODING 8719
SWIDTH 668 0
DWIDTH 13 0
BBX 10 14 2 0
BITMAP
FFC0
FFC0
C0C0
C0C0
C0C0
C0C0
C0C0
C0C0
C0C0
C0C0
C0C0
C0C0
C0C0
C0C0
ENDCHAR
STARTCHAR 2211
ENCODING 8721
SWIDTH 565 0
DWIDTH 11 0
BBX 10 14 1 0
BITMAP
FFC0
FFC0
6000
3000
1800
0C00
0600
0600
0C00
1800
3000
6000
FFC0
FFC0
ENDCHAR
STARTCHAR 2212
ENCODING 8722
SWIDTH 514 0
DWIDTH 10 0
BBX 8 2 1 5
BITMAP
FF
FF
ENDCHAR
STARTCHAR 2215
ENCODING 8725
SWIDTH 411 0
DWIDTH 8 0
BBX 8 13 0 0
BITMAP
03
06
06
0C
0C
08
18
10
30
20
60
40
C0
ENDCHAR
STARTCHAR 2219
ENCODING 8729
SWIDTH 257 0
DWIDTH 5 0
BBX 3 3 1 4
BITMAP
60
E0
60
ENDCHAR
STARTCHAR 221A
ENCODING 8730
SWIDTH 668 0
DWIDTH 13 0
BBX 13 17 1 0
BITMAP
0078
00F8
00C0
00C0
0180
0180
0180
C300
C300
6300
6600
6600
3600
3C00
3C00
1C00
1800
ENDCHAR
STARTCHAR 221E
ENCODING 8734
SWIDTH 822 0
DWIDTH 16 0
BBX 14 7 1 2
BITMAP
7870
FDF8
C70C
830C
C788
7CF8
1020
ENDCHAR
STARTCHAR 222B
ENCODING 8747
SWIDTH 308 0
DWIDTH 6 0
BBX 6 18 0 -4
BITMAP
1C
3C
30
30
30
30
30
30
30
30
30
30
30
30
30
30
F0
E0
ENDCHAR
STARTCHAR 2248
ENCODING 8776
SWIDTH 565 0
DWIDTH 11 0
BBX 9 7 1 2
BITMAP
7000
FF80
0F00
0000
7800
FF80
0700
ENDCHAR
STARTCHAR 2260
ENCODING 8800
SWIDTH 617 0
DWIDTH 12 0
BBX 9 9 1 1
BITMAP
0180
0300
FF80
0780
0C00
FF80
FF80
2000
6000
ENDCHAR
STARTCHAR 2264
ENCODING 8804
SWIDTH 565 0
DWIDTH 11 0
BBX 8 9 1 1
BITMAP
01
0F
78
C0
78
0F
01
FF
FF
ENDCHAR
STARTCHAR 2265
ENCODING 8805
SWIDTH 565 0
DWIDTH 11 0
BBX 8 9 1 1
BITMAP
C0
F8
1F
03
1F
F8
C0
FF
FF
ENDCHAR
STARTCHAR 22C5
ENCODING 8901
SWIDTH 257 0
DWIDTH 5 0
BBX 3 3 1 4
BITMAP
60
E0
60
ENDCHAR
STARTCHAR 24C5
ENCODING 9413
SWIDTH 822 0
DWIDTH 16 0
BBX 14 14 1 0
BITMAP
0FC0
1CE0
7030
6798
C4CC
C44C
84CC
878C
C40C
C40C
6418
3030
1CE0
0FC0
ENDCHAR
STARTCHAR 25A0
ENCODING 9632
SWIDTH 925 0
DWIDTH 18 0
BBX 14 14 2 0
BITMAP
FFFC
FFFC
FFFC
FFFC
FFFC
FFFC
FFFC
FFFC
FFFC
FFFC
FFFC
FFFC
FFFC
FFFC
ENDCHAR
STARTCHAR 25A1
ENCODING 9633
SWIDTH 925 0
DWIDTH 18 0
BBX 14 14 2 0
BITMAP
FFFC
C00C
C00C
C00C
C00C
C00C
C00C
C00C
C00C
C00C
C00C
C00C
C00C
FFFC
ENDCHAR
STARTCHAR 25B2
ENCODING 9650
SWIDTH 822 0
DWIDTH 16 0
BBX 16 14 0 0
BITMAP
0100
0180
01C0
03C0
03E0
07E0
0FF0
0FF8
1FF8
1FFC
3FFC
7FFE
7FFE
FFFF
ENDCHAR
STARTCHAR 25B3
ENCODING 9651
SWIDTH 822 0
DWIDTH 16 0
BBX 16 14 0 0
BITMAP
0100
0180
01C0
03C0
0260
0660
0C30
0C18
1818
100C
300C
6006
6006
FFFF
ENDCHAR
STARTCHAR 25CA
ENCODING 9674
SWIDTH 565 0
DWIDTH 11 0
BBX 9 14 1 0
BITMAP
1800
1C00
3600
3600
6300
6300
C180
C180
6300
6300
3600
3600
1C00
1800
ENDCHAR
STARTCHAR 25CB
ENCODING 9675
SWIDTH 822 0
DWIDTH 16 0
BBX 14 14 1 0
BITMAP
0FC0
1FF0
3038
6018
C00C
C00C
C004
C004
C00C
C00C
6018
3038
1FF0
0FC0
ENDCHAR
STARTCHAR 25CF
ENCODING 9679
SWIDTH 822 0
DWIDTH 16 0
BBX 14 14 1 0
BITMAP
0FC0
1FF0
3FF8
7FF8
FFFC
FFFC
FFFC
FFFC
FFFC
FFFC
7FF8
3FF8
1FF0
0FC0
ENDCHAR
STARTCHAR 262E
ENCODING 9774
SWIDTH 822 0
DWIDTH 16 0
BBX 14 14 1 0
BITMAP
0FC0
1FE0
3330
6318
C30C
C30C
830C
878C
CFCC
DB6C
7338
3330
1FE0
0FC0
ENDCHAR
STARTCHAR 2713
ENCODING 10003
SWIDTH 977 0
DWIDTH 19 0
BBX 17 14 1 0
BITMAP
000080
000180
000300
000600
000C00
001800
003000
806000
C0C000
618000
330000
1E0000
0C0000
080000
ENDCHAR
STARTCHAR 2715
ENCODING 10005
SWIDTH 771 0
DWIDTH 15 0
BBX 13 14 1 0
BITMAP
8008
C018
6030
3060
18C0
0D80
0700
0700
0D80
18C0
3060
6030
C018
8008
ENDCHAR
STARTCHAR 2780
ENCODING 10112
SWIDTH 822 0
DWIDTH 16 0
BBX 14 14 1 0
BITMAP
0FC0
1CE0
3030
6018
C30C
C70C
830C
830C
C30C
C30C
6018
7030
1CE0
0FC0
ENDCHAR
STARTCHAR 2781
ENCODING 10113
SWIDTH 822 0
DWIDTH 16 0
BBX 14 14 1 0
BITMAP
0FC0
3CE0
6038
4798
CC8C
CC8C
818C
870C
C40C
CF8C
6018
3030
1CE0
0FC0
ENDCHAR
STARTCHAR 2782
ENCODING 10114
SWIDTH 822 0
DWIDTH 16 0
BBX 14 14 1 0
BITMAP
0FC0
1CE0
3030
6018
CF8C
C18C
830C
80CC
CCCC
C78C
6018
3030
1CE0
0F80
ENDCHAR
STARTCHAR 2783
ENCODING 10115
SWIDTH 822 0
DWIDTH 16 0
BBX 14 14 1 0
BITMAP
0FC0
1CE0
3030
6198
C38C
C78C
8D8C
898C
CFCC
C18C
6018
3030
1CE0
0FC0
ENDCHAR
STARTCHAR 2784
ENCODING 10116
SWIDTH 822 0
DWIDTH 16 0
BBX 14 14 1 0
BITMAP
0FC0
1CE0
3030
6018
C78C
C40C
8F8C
808C
C88C
C78C
6018
3030
1CE0
0F80
ENDCHAR
STARTCHAR 2785
ENCODING 10117
SWIDTH 822 0
DWIDTH 16 0
BBX 14 14 1 0
BITMAP
0FC0
3CE0
6038
4398
C60C
CC0C
8F8C
8CCC
CCCC
C78C
6018
3030
1CE0
0FC0
ENDCHAR
STARTCHAR 2786
ENCODING 10118
SWIDTH 822 0
DWIDTH 16 0
BBX 14 14 1 0
BITMAP
0FC0
1CE0
3030
6018
CFCC
C18C
810C
830C
C20C
C60C
6618
3030
1CE0
0FC0
ENDCHAR
STARTCHAR 2787
ENCODING 10119
SWIDTH 822 0
DWIDTH 16 0
BBX 14 14 1 0
BITMAP
0FC0
3CF0
6038
4798
CC8C
CC8C
878C
8CCC
CCCC
C78C
6018
3030
1CE0
0F80
ENDCHAR
STARTCHAR 2788
ENCODING 10120
SWIDTH 822 0
DWIDTH 16 0
BBX 14 14 1 0
BITMAP
0FC0
1CE0
3030
6018
C78C
CCCC
8CCC
87CC
C08C
C78C
6018
3030
1CE0
0F80
ENDCHAR
STARTCHAR E000
ENCODING 57344
SWIDTH 822 0
DWIDTH 16 0
BBX 14 14 1 0
BITMAP
3FFC
3FFC
3000
3000
3000
3000
3000
3000
3000
3000
FC00
7800
3800
1000
ENDCHAR
STARTCHAR E001
ENCODING 57345
SWIDTH 1080 0
DWIDTH 21 0
BBX 19 14 1 0
BITMAP
01F000
07F800
0E0000
180000
180180
1003C0
3007E0
FC0180
7C0180
380100
100300
000600
03FC00
01F000
ENDCHAR
STARTCHAR E002
ENCODING 57346
SWIDTH 925 0
DWIDTH 18 0
BBX 16 14 1 0
BITMAP
0FC0
1FC0
3000
6004
C00E
C01F
C03F
C004
C00C
C00C
6018
3038
1FF0
0FC0
ENDCHAR
STARTCHAR FB00
ENCODING 64256
SWIDTH 668 0
DWIDTH 13 0
BBX 12 15 0 0
BITMAP
0C30
1C70
30C0
30C0
30C0
FFF0
FFF0
30C0
30C0
30C0
30C0
30C0
30C0
30C0
30C0
ENDCHAR
STARTCHAR FB01
ENCODING 64257
SWIDTH 617 0
DWIDTH 12 0
BBX 11 15 0 0
BITMAP
0CC0
1CE0
30C0
3000
3000
FFC0
FFC0
30C0
30C0
30C0
30C0
30C0
30C0
30C0
30C0
ENDCHAR
STARTCHAR FB02
ENCODING 64258
SWIDTH 617 0
DWIDTH 12 0
BBX 10 14 0 0
BITMAP
1CC0
3CC0
30C0
30C0
FFC0
FFC0
30C0
30C0
30C0
30C0
30C0
30C0
30C0
30C0
ENDCHAR
STARTCHAR FB03
ENCODING 64259
SWIDTH 925 0
DWIDTH 18 0
BBX 17 15 0 0
BITMAP
0C3300
1C7380
30C100
30C000
30C000
FFFF00
FFFF00
30C100
30C100
30C100
30C100
30C100
30C100
30C100
30C100
ENDCHAR
STARTCHAR FB04
ENCODING 64260
SWIDTH 925 0
DWIDTH 18 0
BBX 16 14 0 0
BITMAP
1C31
3C71
30C1
30C1
FFFF
FFFF
30C1
30C1
30C1
30C1
30C1
30C1
30C1
30C1
ENDCHAR
STARTCHAR FEFF
ENCODING 65279
SWIDTH 0 0
DWIDTH 0 0
BBX 0 0 0 0
BITMAP
ENDCHAR
ENDFONT
